<svg width="1248" height="822" viewBox="0 0 1248 822" fill="none" xmlns="http://www.w3.org/2000/svg">
<g style="mix-blend-mode:screen">
<path d="M645.291 76.6898C649.391 76.6898 652.715 73.1441 652.715 68.7702C652.715 64.3963 649.391 60.8506 645.291 60.8506C641.191 60.8506 637.867 64.3963 637.867 68.7702C637.867 73.1441 641.191 76.6898 645.291 76.6898Z" fill="white"/>
<path d="M749.976 332.469C754.076 332.469 757.4 328.923 757.4 324.549C757.4 320.176 754.076 316.63 749.976 316.63C745.876 316.63 742.553 320.176 742.553 324.549C742.553 328.923 745.876 332.469 749.976 332.469Z" fill="white"/>
<path d="M1201.12 252.883C1204.64 252.883 1207.48 249.844 1207.48 246.095C1207.48 242.346 1204.64 239.307 1201.12 239.307C1197.61 239.307 1194.76 242.346 1194.76 246.095C1194.76 249.844 1197.61 252.883 1201.12 252.883Z" fill="white"/>
<path d="M854.938 451.973C854.938 456.66 851.376 460.458 846.983 460.458C842.591 460.458 839.029 456.66 839.029 451.973C839.029 447.287 842.591 443.488 846.983 443.488C851.376 443.488 854.938 447.287 854.938 451.973Z" fill="white"/>
<path d="M900.028 468.375C900.028 472.437 896.942 475.73 893.135 475.73C889.327 475.73 886.241 472.437 886.241 468.375C886.241 464.314 889.327 461.021 893.135 461.021C896.942 461.021 900.028 464.314 900.028 468.375Z" fill="white"/>
<path d="M961.34 399.911C964.854 399.911 967.703 396.872 967.703 393.123C967.703 389.374 964.854 386.335 961.34 386.335C957.825 386.335 954.977 389.374 954.977 393.123C954.977 396.872 957.825 399.911 961.34 399.911Z" fill="white"/>
<path d="M1071.72 307.616C1075.53 307.616 1078.61 304.324 1078.61 300.262C1078.61 296.201 1075.53 292.908 1071.72 292.908C1067.91 292.908 1064.83 296.201 1064.83 300.262C1064.83 304.324 1067.91 307.616 1071.72 307.616Z" fill="white"/>
<path d="M1101.48 241.608C1105.29 241.608 1108.38 238.316 1108.38 234.254C1108.38 230.193 1105.29 226.9 1101.48 226.9C1097.68 226.9 1094.59 230.193 1094.59 234.254C1094.59 238.316 1097.68 241.608 1101.48 241.608Z" fill="white"/>
<path d="M865.627 154.604C869.727 154.604 873.051 151.058 873.051 146.684C873.051 142.31 869.727 138.765 865.627 138.765C861.527 138.765 858.203 142.31 858.203 146.684C858.203 151.058 861.527 154.604 865.627 154.604Z" fill="white"/>
<path d="M1014.55 150.229C1018.36 150.229 1021.45 146.937 1021.45 142.875C1021.45 138.814 1018.36 135.521 1014.55 135.521C1010.75 135.521 1007.66 138.814 1007.66 142.875C1007.66 146.937 1010.75 150.229 1014.55 150.229Z" fill="white"/>
<path d="M1012.95 28.0154C1016.47 28.0154 1019.32 24.9762 1019.32 21.2272C1019.32 17.4782 1016.47 14.439 1012.95 14.439C1009.44 14.439 1006.59 17.4782 1006.59 21.2272C1006.59 24.9762 1009.44 28.0154 1012.95 28.0154Z" fill="white"/>
<path d="M1008.66 176.024C1011.59 176.024 1013.96 173.492 1013.96 170.367C1013.96 167.243 1011.59 164.71 1008.66 164.71C1005.73 164.71 1003.36 167.243 1003.36 170.367C1003.36 173.492 1005.73 176.024 1008.66 176.024Z" fill="white"/>
<path d="M752.03 205.611C756.13 205.611 759.454 202.065 759.454 197.692C759.454 193.318 756.13 189.772 752.03 189.772C747.93 189.772 744.606 193.318 744.606 197.692C744.606 202.065 747.93 205.611 752.03 205.611Z" fill="white"/>
<path d="M1086.6 374.015C1090.41 374.015 1093.5 370.723 1093.5 366.662C1093.5 362.6 1090.41 359.308 1086.6 359.308C1082.8 359.308 1079.71 362.6 1079.71 366.662C1079.71 370.723 1082.8 374.015 1086.6 374.015Z" fill="white"/>
<path d="M1071.55 471.314C1075.35 471.314 1078.44 468.021 1078.44 463.96C1078.44 459.898 1075.35 456.606 1071.55 456.606C1067.74 456.606 1064.65 459.898 1064.65 463.96C1064.65 468.021 1067.74 471.314 1071.55 471.314Z" fill="white"/>
</g>
</svg>
