<svg width="1249" height="822" viewBox="0 0 1249 822" fill="none" xmlns="http://www.w3.org/2000/svg">
<g filter="url(#filter0_d_3375_62)">
<path d="M916.938 262.991C916.957 271.688 910.492 278.756 902.498 278.778C894.505 278.8 888.011 271.767 887.992 263.07C887.974 254.373 894.439 247.305 902.432 247.283C910.425 247.261 916.92 254.294 916.938 262.991Z" fill="white"/>
</g>
<g filter="url(#filter1_d_3375_62)">
<path d="M1225.6 165.457C1225.61 174.486 1218.9 181.823 1210.59 181.846C1202.28 181.869 1195.53 174.568 1195.51 165.539C1195.49 156.51 1202.21 149.172 1210.52 149.149C1218.83 149.127 1225.58 156.428 1225.6 165.457Z" fill="white"/>
</g>
<g filter="url(#filter2_d_3375_62)">
<path d="M1028.39 587.523C1028.41 596.095 1021.85 603.062 1013.74 603.084C1005.64 603.106 999.051 596.175 999.033 587.602C999.015 579.03 1005.57 572.063 1013.68 572.041C1021.78 572.019 1028.37 578.95 1028.39 587.523Z" fill="white"/>
</g>
<path d="M894.518 277.039L841.834 411.946" stroke="white" stroke-width="1.72551"/>
<path d="M912.002 260.478L959.231 266.863" stroke="white" stroke-width="1.72551"/>
<path d="M910.511 255.756L979.157 195.227" stroke="white" stroke-width="1.72551"/>
<path d="M893.953 246.652L846.818 178.006" stroke="white" stroke-width="1.72551"/>
<path d="M886.214 253.747L775.684 232.613" stroke="white" stroke-width="1.72551"/>
<path d="M883.853 262.051L782.147 284.005" stroke="white" stroke-width="1.72551"/>
<path d="M1196.26 176.146L1113.5 226.819" stroke="white" stroke-width="1.72551"/>
<path d="M1218.05 151.952L1232.84 100.001" stroke="white" stroke-width="1.72551"/>
<path d="M1214.63 168.447L1239 192.001" stroke="white" stroke-width="1.72551"/>
<path d="M1008 597L881.604 779.734" stroke="white" stroke-width="1.72551"/>
<path d="M1024.44 762.97L1017 603" stroke="white" stroke-width="1.72551"/>
<path d="M1095 695L1020.47 600.592" stroke="white" stroke-width="1.72551"/>
<defs>
<filter id="filter0_d_3375_62" x="882.992" y="242.283" width="38.9463" height="41.4951" filterUnits="userSpaceOnUse" color-interpolation-filters="sRGB">
<feFlood flood-opacity="0" result="BackgroundImageFix"/>
<feColorMatrix in="SourceAlpha" type="matrix" values="0 0 0 0 0 0 0 0 0 0 0 0 0 0 0 0 0 0 127 0" result="hardAlpha"/>
<feOffset/>
<feGaussianBlur stdDeviation="2.5"/>
<feColorMatrix type="matrix" values="0 0 0 0 1 0 0 0 0 1 0 0 0 0 1 0 0 0 0.76 0"/>
<feBlend mode="normal" in2="BackgroundImageFix" result="effect1_dropShadow_3375_62"/>
<feBlend mode="normal" in="SourceGraphic" in2="effect1_dropShadow_3375_62" result="shape"/>
</filter>
<filter id="filter1_d_3375_62" x="1190.51" y="144.149" width="40.082" height="42.697" filterUnits="userSpaceOnUse" color-interpolation-filters="sRGB">
<feFlood flood-opacity="0" result="BackgroundImageFix"/>
<feColorMatrix in="SourceAlpha" type="matrix" values="0 0 0 0 0 0 0 0 0 0 0 0 0 0 0 0 0 0 127 0" result="hardAlpha"/>
<feOffset/>
<feGaussianBlur stdDeviation="2.5"/>
<feColorMatrix type="matrix" values="0 0 0 0 1 0 0 0 0 1 0 0 0 0 1 0 0 0 0.76 0"/>
<feBlend mode="normal" in2="BackgroundImageFix" result="effect1_dropShadow_3375_62"/>
<feBlend mode="normal" in="SourceGraphic" in2="effect1_dropShadow_3375_62" result="shape"/>
</filter>
<filter id="filter2_d_3375_62" x="994.032" y="567.041" width="39.3564" height="41.0437" filterUnits="userSpaceOnUse" color-interpolation-filters="sRGB">
<feFlood flood-opacity="0" result="BackgroundImageFix"/>
<feColorMatrix in="SourceAlpha" type="matrix" values="0 0 0 0 0 0 0 0 0 0 0 0 0 0 0 0 0 0 127 0" result="hardAlpha"/>
<feOffset/>
<feGaussianBlur stdDeviation="2.5"/>
<feColorMatrix type="matrix" values="0 0 0 0 1 0 0 0 0 1 0 0 0 0 1 0 0 0 0.76 0"/>
<feBlend mode="normal" in2="BackgroundImageFix" result="effect1_dropShadow_3375_62"/>
<feBlend mode="normal" in="SourceGraphic" in2="effect1_dropShadow_3375_62" result="shape"/>
</filter>
</defs>
</svg>
