<svg width="2000" height="1280" viewBox="0 0 2000 1280" fill="none" xmlns="http://www.w3.org/2000/svg">
<rect width="2000" height="1280" fill="#090808" fill-opacity="0.1"/>
<path fill-rule="evenodd" clip-rule="evenodd" d="M1639.97 120.007C1644.74 120.016 1648.62 115.892 1648.63 110.794C1648.64 105.696 1644.78 101.556 1640.01 101.546C1635.24 101.537 1631.37 105.662 1631.36 110.759C1631.34 115.857 1635.2 119.997 1639.97 120.007ZM1140.87 185.199C1146.44 185.21 1150.96 180.398 1150.97 174.451C1150.99 168.503 1146.49 163.673 1140.92 163.662C1135.36 163.651 1130.84 168.463 1130.82 174.411C1130.81 180.358 1135.31 185.188 1140.87 185.199ZM868.635 1030.03C873.405 1030.04 877.28 1025.92 877.292 1020.82C877.304 1015.72 873.448 1011.58 868.679 1011.57C863.91 1011.56 860.034 1015.69 860.022 1020.79C860.01 1025.88 863.866 1030.02 868.635 1030.03ZM1292.22 522.527C1292.21 528.474 1287.69 533.286 1282.12 533.275C1276.56 533.264 1272.06 528.434 1272.07 522.487C1272.09 516.539 1276.61 511.727 1282.17 511.738C1287.74 511.749 1292.24 516.579 1292.22 522.527ZM1894.61 426.276C1899.38 426.285 1903.26 422.16 1903.27 417.063C1903.28 411.965 1899.42 407.825 1894.66 407.815C1889.89 407.806 1886.01 411.931 1886 417.028C1885.99 422.126 1889.84 426.266 1894.61 426.276ZM1424.18 696.053C1424.17 702.425 1419.32 707.581 1413.36 707.57C1407.4 707.558 1402.58 702.382 1402.59 696.01C1402.61 689.638 1407.45 684.482 1413.41 684.494C1419.37 684.506 1424.2 689.681 1424.18 696.053ZM1475.94 728.458C1481.11 728.468 1485.31 724 1485.32 718.477C1485.33 712.955 1481.15 708.469 1475.99 708.459C1470.82 708.449 1466.62 712.917 1466.61 718.44C1466.6 723.962 1470.77 728.448 1475.94 728.458ZM1577.4 616.336C1577.39 621.434 1573.51 625.559 1568.74 625.55C1563.97 625.54 1560.12 621.4 1560.13 616.302C1560.14 611.204 1564.02 607.08 1568.79 607.089C1573.55 607.099 1577.41 611.239 1577.4 616.336ZM1718.83 500.35C1723.99 500.36 1728.19 495.891 1728.21 490.369C1728.22 484.846 1724.04 480.361 1718.87 480.351C1713.71 480.341 1709.51 484.809 1709.5 490.332C1709.48 495.854 1713.66 500.339 1718.83 500.35ZM1768.81 400.696C1768.79 406.219 1764.6 410.687 1759.43 410.677C1754.26 410.667 1750.08 406.181 1750.1 400.659C1750.11 395.136 1754.31 390.668 1759.48 390.678C1764.64 390.688 1768.82 395.174 1768.81 400.696ZM1439.64 291.737C1445.2 291.748 1449.72 286.935 1449.74 280.988C1449.75 275.041 1445.25 270.21 1439.69 270.199C1434.12 270.188 1429.6 275.001 1429.59 280.948C1429.57 286.895 1434.07 291.726 1439.64 291.737ZM1651.14 276.209C1651.13 281.732 1646.93 286.201 1641.76 286.19C1636.59 286.18 1632.42 281.695 1632.43 276.172C1632.44 270.65 1636.64 266.181 1641.81 266.191C1646.97 266.202 1651.15 270.687 1651.14 276.209ZM1640.9 313.572C1640.89 317.82 1637.66 321.257 1633.68 321.249C1629.71 321.242 1626.49 317.791 1626.5 313.543C1626.51 309.295 1629.74 305.858 1633.72 305.866C1637.69 305.874 1640.91 309.324 1640.9 313.572ZM1285.31 360.786C1290.88 360.797 1295.4 355.985 1295.41 350.038C1295.43 344.09 1290.93 339.26 1285.36 339.249C1279.8 339.238 1275.28 344.05 1275.26 349.998C1275.25 355.945 1279.75 360.775 1285.31 360.786ZM1748.19 580.695C1748.18 586.217 1743.98 590.686 1738.81 590.676C1733.64 590.665 1729.47 586.18 1729.48 580.658C1729.49 575.135 1733.69 570.667 1738.86 570.677C1744.03 570.687 1748.2 575.172 1748.19 580.695ZM1718.07 722.935C1723.24 722.946 1727.44 718.477 1727.45 712.955C1727.46 707.432 1723.29 702.947 1718.12 702.937C1712.95 702.926 1708.75 707.395 1708.74 712.917C1708.73 718.44 1712.91 722.925 1718.07 722.935Z" fill="white"/>
<path d="M42 41H1958V39H42V41ZM1959 42V1238H1961V42H1959ZM1958 1239H42V1241H1958V1239ZM41 1238V42H39V1238H41ZM42 1239C41.4477 1239 41 1238.55 41 1238H39C39 1239.66 40.3431 1241 42 1241V1239ZM1959 1238C1959 1238.55 1958.55 1239 1958 1239V1241C1959.66 1241 1961 1239.66 1961 1238H1959ZM1958 41C1958.55 41 1959 41.4477 1959 42H1961C1961 40.3432 1959.66 39 1958 39V41ZM42 39C40.3431 39 39 40.3431 39 42H41C41 41.4477 41.4477 41 42 41V39Z" fill="white" fill-opacity="0.1"/>
</svg>
